<?xml version="1.0"?>
<svg version="1.1" xmlns="http://www.w3.org/2000/svg" xmlns:xlink="http://www.w3.org/1999/xlink" width="1080" height="1080">
    <desc iVinci="yes" version="4.4" gridStep="10" showGrid="yes" snapToGrid="yes" codePlatform="0"/>
    <g id="Layer1">
        <g id="Shape1">
            <desc type="0" basicInfo-basicType="0" basicInfo-roundedRectRadius="12" basicInfo-polygonSides="6" basicInfo-starPoints="5" bounding="rect(0,0,0,0)" text="" font-familyName="" font-pixelSize="20" font-bold="0" font-underline="0" font-alignment="1" strokeStyle="0" markerStart="0" markerEnd="0" shadowEnabled="0" shadowOffsetX="0" shadowOffsetY="2" shadowBlur="4" shadowOpacity="160" blurEnabled="0" blurRadius="4" transform="matrix(1,0,0,1,851.559,501.63)" pers-center="0,0" pers-size="0,0" pers-start="0,0" pers-end="0,0" locked="0" mesh="" flag=""/>
            <path id="shapePath1" d="M851.559,501.63 Z" style="stroke:#000000;stroke-opacity:1;stroke-width:1.27391;stroke-linejoin:miter;stroke-miterlimit:2;stroke-linecap:butt;fill:none;"/>
        </g>
        <g id="Shape2">
            <desc type="0" basicInfo-basicType="0" basicInfo-roundedRectRadius="12" basicInfo-polygonSides="6" basicInfo-starPoints="5" bounding="rect(-10.0002,-128.295,20.0004,256.589)" text="" font-familyName="" font-pixelSize="20" font-bold="0" font-underline="0" font-alignment="1" strokeStyle="0" markerStart="0" markerEnd="0" shadowEnabled="0" shadowOffsetX="0" shadowOffsetY="2" shadowBlur="4" shadowOpacity="160" blurEnabled="0" blurRadius="4" transform="matrix(-3.86144e-06,-1,0.389728,-1.50491e-06,70.5002,340.5)" pers-center="0,0" pers-size="0,0" pers-start="0,0" pers-end="0,0" locked="0" mesh="" flag=""/>
            <path id="shapePath2" d="M20.5,350.5 L20.4999,330.5 L120.5,330.5 L120.5,350.5 L20.5,350.5 Z" style="stroke:none;fill-rule:evenodd;fill:#000000;fill-opacity:1;"/>
        </g>
        <g id="Shape3">
            <desc type="0" basicInfo-basicType="0" basicInfo-roundedRectRadius="12" basicInfo-polygonSides="6" basicInfo-starPoints="5" bounding="rect(-43.1976,-62.5,86.3954,125)" text="" font-familyName="" font-pixelSize="20" font-bold="0" font-underline="0" font-alignment="1" strokeStyle="0" markerStart="0" markerEnd="0" shadowEnabled="0" shadowOffsetX="0" shadowOffsetY="2" shadowBlur="4" shadowOpacity="160" blurEnabled="0" blurRadius="4" transform="matrix(-3.86144e-06,-1,1,-3.86144e-06,173,307.303)" pers-center="0,0" pers-size="0,0" pers-start="0,0" pers-end="0,0" locked="0" mesh="" flag=""/>
            <path id="shapePath3" d="M110.5,350.5 C110.5,235.217 235.5,235.396 235.5,350.5 " style="stroke:#000000;stroke-opacity:1;stroke-width:20;stroke-linejoin:miter;stroke-miterlimit:2;stroke-linecap:butt;fill:none;"/>
        </g>
        <g id="Shape4">
            <desc type="0" basicInfo-basicType="0" basicInfo-roundedRectRadius="12" basicInfo-polygonSides="6" basicInfo-starPoints="5" bounding="rect(-43.1977,-62.5,86.3954,125)" text="" font-familyName="" font-pixelSize="20" font-bold="0" font-underline="0" font-alignment="1" strokeStyle="0" markerStart="0" markerEnd="0" shadowEnabled="0" shadowOffsetX="0" shadowOffsetY="2" shadowBlur="4" shadowOpacity="160" blurEnabled="0" blurRadius="4" transform="matrix(-3.86144e-06,-1,1,-3.86144e-06,298,307.302)" pers-center="0,0" pers-size="0,0" pers-start="0,0" pers-end="0,0" locked="0" mesh="" flag=""/>
            <path id="shapePath4" d="M235.5,350.5 C235.5,235.216 360.5,235.396 360.5,350.499 " style="stroke:#000000;stroke-opacity:1;stroke-width:20;stroke-linejoin:miter;stroke-miterlimit:2;stroke-linecap:butt;fill:none;"/>
        </g>
        <g id="Shape5">
            <desc type="0" basicInfo-basicType="0" basicInfo-roundedRectRadius="12" basicInfo-polygonSides="6" basicInfo-starPoints="5" bounding="rect(-43.1976,-62.5,86.3954,125)" text="" font-familyName="" font-pixelSize="20" font-bold="0" font-underline="0" font-alignment="1" strokeStyle="0" markerStart="0" markerEnd="0" shadowEnabled="0" shadowOffsetX="0" shadowOffsetY="2" shadowBlur="4" shadowOpacity="160" blurEnabled="0" blurRadius="4" transform="matrix(-3.86144e-06,-1,1,-3.86144e-06,423,307.302)" pers-center="0,0" pers-size="0,0" pers-start="0,0" pers-end="0,0" locked="0" mesh="" flag=""/>
            <path id="shapePath5" d="M360.5,350.499 C360.5,235.216 485.5,235.395 485.5,350.499 " style="stroke:#000000;stroke-opacity:1;stroke-width:20;stroke-linejoin:miter;stroke-miterlimit:2;stroke-linecap:butt;fill:none;"/>
        </g>
        <g id="Shape6">
            <desc type="0" basicInfo-basicType="0" basicInfo-roundedRectRadius="12" basicInfo-polygonSides="6" basicInfo-starPoints="5" bounding="rect(-43.1976,-62.5,86.3954,125)" text="" font-familyName="" font-pixelSize="20" font-bold="0" font-underline="0" font-alignment="1" strokeStyle="0" markerStart="0" markerEnd="0" shadowEnabled="0" shadowOffsetX="0" shadowOffsetY="2" shadowBlur="4" shadowOpacity="160" blurEnabled="0" blurRadius="4" transform="matrix(-3.86144e-06,-1,1,-3.86144e-06,548,307.301)" pers-center="0,0" pers-size="0,0" pers-start="0,0" pers-end="0,0" locked="0" mesh="" flag=""/>
            <path id="shapePath6" d="M485.5,350.499 C485.499,235.215 610.499,235.395 610.5,350.498 " style="stroke:#000000;stroke-opacity:1;stroke-width:20;stroke-linejoin:miter;stroke-miterlimit:2;stroke-linecap:butt;fill:none;"/>
        </g>
        <g id="Shape7">
            <desc type="0" basicInfo-basicType="0" basicInfo-roundedRectRadius="12" basicInfo-polygonSides="6" basicInfo-starPoints="5" bounding="rect(-10.0001,-128.295,20.0002,256.589)" text="" font-familyName="" font-pixelSize="20" font-bold="0" font-underline="0" font-alignment="1" strokeStyle="0" markerStart="0" markerEnd="0" shadowEnabled="0" shadowOffsetX="0" shadowOffsetY="2" shadowBlur="4" shadowOpacity="160" blurEnabled="0" blurRadius="4" transform="matrix(-3.86144e-06,-1,1.79275,-6.9226e-06,830.5,340.499)" pers-center="0,0" pers-size="0,0" pers-start="0,0" pers-end="0,0" locked="0" mesh="" flag=""/>
            <path id="shapePath7" d="M600.499,350.5 L600.499,330.5 L1060.5,330.498 L1060.5,350.498 L600.499,350.5 Z" style="stroke:none;fill-rule:evenodd;fill:#000000;fill-opacity:1;"/>
        </g>
        <g id="Shape8">
            <desc type="0" basicInfo-basicType="0" basicInfo-roundedRectRadius="12" basicInfo-polygonSides="6" basicInfo-starPoints="5" bounding="rect(-10.0001,-128.295,20.0001,256.589)" text="" font-familyName="" font-pixelSize="20" font-bold="0" font-underline="0" font-alignment="1" strokeStyle="0" markerStart="0" markerEnd="0" shadowEnabled="0" shadowOffsetX="0" shadowOffsetY="2" shadowBlur="4" shadowOpacity="160" blurEnabled="0" blurRadius="4" transform="matrix(1,1.46422e-06,-5.70646e-07,0.389728,710.502,380.5)" pers-center="0,0" pers-size="0,0" pers-start="0,0" pers-end="0,0" locked="0" mesh="" flag=""/>
            <path id="shapePath8" d="M700.502,330.5 L720.502,330.5 L720.502,430.5 L700.502,430.5 L700.502,330.5 Z" style="stroke:none;fill-rule:evenodd;fill:#000000;fill-opacity:1;"/>
        </g>
        <g id="Shape9">
            <desc type="0" basicInfo-basicType="0" basicInfo-roundedRectRadius="12" basicInfo-polygonSides="6" basicInfo-starPoints="5" bounding="rect(-43.1974,-62.5,86.3948,125)" text="" font-familyName="" font-pixelSize="20" font-bold="0" font-underline="0" font-alignment="1" strokeStyle="0" markerStart="0" markerEnd="0" shadowEnabled="0" shadowOffsetX="0" shadowOffsetY="2" shadowBlur="4" shadowOpacity="160" blurEnabled="0" blurRadius="4" transform="matrix(1,1.46422e-06,-1.46422e-06,1,743.699,483)" pers-center="0,0" pers-size="0,0" pers-start="0,0" pers-end="0,0" locked="0" mesh="" flag=""/>
            <path id="shapePath9" d="M700.502,420.5 C815.785,420.5 815.605,545.5 700.502,545.5 " style="stroke:#000000;stroke-opacity:1;stroke-width:20;stroke-linejoin:miter;stroke-miterlimit:2;stroke-linecap:butt;fill:none;"/>
        </g>
        <g id="Shape10">
            <desc type="0" basicInfo-basicType="0" basicInfo-roundedRectRadius="12" basicInfo-polygonSides="6" basicInfo-starPoints="5" bounding="rect(-43.1977,-62.5,86.3956,125)" text="" font-familyName="" font-pixelSize="20" font-bold="0" font-underline="0" font-alignment="1" strokeStyle="0" markerStart="0" markerEnd="0" shadowEnabled="0" shadowOffsetX="0" shadowOffsetY="2" shadowBlur="4" shadowOpacity="160" blurEnabled="0" blurRadius="4" transform="matrix(1,1.46422e-06,-1.46422e-06,1,743.699,608.001)" pers-center="0,0" pers-size="0,0" pers-start="0,0" pers-end="0,0" locked="0" mesh="" flag=""/>
            <path id="shapePath10" d="M700.502,545.501 C815.785,545.501 815.605,670.501 700.501,670.501 " style="stroke:#000000;stroke-opacity:1;stroke-width:20;stroke-linejoin:miter;stroke-miterlimit:2;stroke-linecap:butt;fill:none;"/>
        </g>
        <g id="Shape11">
            <desc type="0" basicInfo-basicType="0" basicInfo-roundedRectRadius="12" basicInfo-polygonSides="6" basicInfo-starPoints="5" bounding="rect(-43.1978,-62.5,86.3956,125)" text="" font-familyName="" font-pixelSize="20" font-bold="0" font-underline="0" font-alignment="1" strokeStyle="0" markerStart="0" markerEnd="0" shadowEnabled="0" shadowOffsetX="0" shadowOffsetY="2" shadowBlur="4" shadowOpacity="160" blurEnabled="0" blurRadius="4" transform="matrix(1,1.46422e-06,-1.46422e-06,1,743.699,733.001)" pers-center="0,0" pers-size="0,0" pers-start="0,0" pers-end="0,0" locked="0" mesh="" flag=""/>
            <path id="shapePath11" d="M700.501,670.501 C815.785,670.501 815.605,795.501 700.501,795.501 " style="stroke:#000000;stroke-opacity:1;stroke-width:20;stroke-linejoin:miter;stroke-miterlimit:2;stroke-linecap:butt;fill:none;"/>
        </g>
        <g id="Shape12">
            <desc type="0" basicInfo-basicType="0" basicInfo-roundedRectRadius="12" basicInfo-polygonSides="6" basicInfo-starPoints="5" bounding="rect(-43.1974,-62.5,86.3949,125)" text="" font-familyName="" font-pixelSize="20" font-bold="0" font-underline="0" font-alignment="1" strokeStyle="0" markerStart="0" markerEnd="0" shadowEnabled="0" shadowOffsetX="0" shadowOffsetY="2" shadowBlur="4" shadowOpacity="160" blurEnabled="0" blurRadius="4" transform="matrix(1,1.46422e-06,-1.46422e-06,1,743.698,858.001)" pers-center="0,0" pers-size="0,0" pers-start="0,0" pers-end="0,0" locked="0" mesh="" flag=""/>
            <path id="shapePath12" d="M700.501,795.501 C815.784,795.501 815.604,920.501 700.501,920.501 " style="stroke:#000000;stroke-opacity:1;stroke-width:20;stroke-linejoin:miter;stroke-miterlimit:2;stroke-linecap:butt;fill:none;"/>
        </g>
        <g id="Shape13">
            <desc type="0" basicInfo-basicType="0" basicInfo-roundedRectRadius="12" basicInfo-polygonSides="6" basicInfo-starPoints="5" bounding="rect(-10.0001,-128.294,20.0002,256.587)" text="" font-familyName="" font-pixelSize="20" font-bold="0" font-underline="0" font-alignment="1" strokeStyle="0" markerStart="0" markerEnd="0" shadowEnabled="0" shadowOffsetX="0" shadowOffsetY="2" shadowBlur="4" shadowOpacity="160" blurEnabled="0" blurRadius="4" transform="matrix(1,1.46422e-06,-6.84776e-07,0.467674,710.499,970.501)" pers-center="0,0" pers-size="0,0" pers-start="0,0" pers-end="0,0" locked="0" mesh="" flag=""/>
            <path id="shapePath13" d="M700.499,910.501 L720.499,910.501 L720.499,1030.5 L700.499,1030.5 L700.499,910.501 Z" style="stroke:none;fill-rule:evenodd;fill:#000000;fill-opacity:1;"/>
        </g>
        <g id="Shape14">
            <desc type="0" basicInfo-basicType="0" basicInfo-roundedRectRadius="12" basicInfo-polygonSides="6" basicInfo-starPoints="5" bounding="rect(-10.0016,-128.295,20.0031,256.59)" text="" font-familyName="" font-pixelSize="20" font-bold="0" font-underline="0" font-alignment="1" strokeStyle="0" markerStart="0" markerEnd="0" shadowEnabled="0" shadowOffsetX="0" shadowOffsetY="2" shadowBlur="4" shadowOpacity="160" blurEnabled="0" blurRadius="4" transform="matrix(-3.86144e-06,-1,4.05317,-1.56511e-05,540.5,1020.5)" pers-center="0,0" pers-size="0,0" pers-start="0,0" pers-end="0,0" locked="0" mesh="" flag=""/>
            <path id="shapePath14" d="M20.4982,1030.5 L20.498,1010.5 L1060.5,1010.5 L1060.5,1030.5 L20.4982,1030.5 Z" style="stroke:none;fill-rule:evenodd;fill:#000000;fill-opacity:1;"/>
        </g>
        <g id="Shape15">
            <desc type="2" basicInfo-basicType="0" basicInfo-roundedRectRadius="12" basicInfo-polygonSides="6" basicInfo-starPoints="5" bounding="rect(-74.9995,-75,149.999,150)" text="L1" font-familyName="Helvetica" font-pixelSize="140" font-bold="0" font-underline="0" font-alignment="1" strokeStyle="0" markerStart="0" markerEnd="0" shadowEnabled="0" shadowOffsetX="0" shadowOffsetY="2" shadowBlur="4" shadowOpacity="160" blurEnabled="0" blurRadius="4" transform="matrix(1,0,0,1,365.5,185.5)" pers-center="0,0" pers-size="0,0" pers-start="0,0" pers-end="0,0" locked="0" mesh="" flag=""/>
            <path id="shapePath15" d="M298.305,122.877 L311.908,122.877 L311.908,211.334 L362.768,211.334 L362.768,223.297 L298.305,223.297 L298.305,122.877 M378.898,153.98 L378.898,144.547 C387.785,143.681 393.983,142.234 397.492,140.206 C401.001,138.178 403.622,133.382 405.354,125.816 L415.061,125.816 L415.061,223.297 L401.936,223.297 L401.936,153.98 L378.898,153.98 " style="stroke:none;fill-rule:nonzero;fill:#000000;fill-opacity:1;"/>
        </g>
        <g id="Shape16">
            <desc type="2" basicInfo-basicType="0" basicInfo-roundedRectRadius="12" basicInfo-polygonSides="6" basicInfo-starPoints="5" bounding="rect(-74.9995,-75,149.999,150)" text="L2" font-familyName="Helvetica" font-pixelSize="140" font-bold="0" font-underline="0" font-alignment="1" strokeStyle="0" markerStart="0" markerEnd="0" shadowEnabled="0" shadowOffsetX="0" shadowOffsetY="2" shadowBlur="4" shadowOpacity="160" blurEnabled="0" blurRadius="4" transform="matrix(1,0,0,1,895.5,675.5)" pers-center="0,0" pers-size="0,0" pers-start="0,0" pers-end="0,0" locked="0" mesh="" flag=""/>
            <path id="shapePath16" d="M828.305,612.877 L841.908,612.877 L841.908,701.334 L892.768,701.334 L892.768,713.297 L828.305,713.297 L828.305,612.877 M905.104,691.285 C908.135,685.042 914.048,679.368 922.844,674.264 L935.969,666.676 C941.848,663.258 945.972,660.341 948.342,657.926 C952.079,654.143 953.947,649.814 953.947,644.938 C953.947,639.241 952.238,634.718 948.82,631.368 C945.402,628.019 940.845,626.344 935.148,626.344 C926.717,626.344 920.884,629.534 917.648,635.914 C915.917,639.332 914.96,644.072 914.777,650.133 L902.268,650.133 C902.404,641.611 903.977,634.661 906.984,629.283 C912.316,619.804 921.727,615.064 935.217,615.064 C946.428,615.064 954.619,618.095 959.792,624.156 C964.965,630.217 967.551,636.962 967.551,644.391 C967.551,652.229 964.794,658.928 959.279,664.488 C956.089,667.724 950.37,671.643 942.121,676.246 L932.756,681.441 C928.29,683.902 924.781,686.249 922.229,688.482 C917.671,692.447 914.8,696.845 913.615,701.676 L967.072,701.676 L967.072,713.297 L899.875,713.297 C900.331,704.866 902.074,697.529 905.104,691.285 " style="stroke:none;fill-rule:nonzero;fill:#000000;fill-opacity:1;"/>
        </g>
        <g id="Shape17">
            <desc type="0" basicInfo-basicType="4" basicInfo-roundedRectRadius="12" basicInfo-polygonSides="6" basicInfo-starPoints="5" bounding="rect(-29.1982,-29.1982,58.3965,58.3965)" text="" font-familyName="Helvetica" font-pixelSize="140" font-bold="0" font-underline="0" font-alignment="1" strokeStyle="0" markerStart="0" markerEnd="0" shadowEnabled="0" shadowOffsetX="0" shadowOffsetY="2" shadowBlur="4" shadowOpacity="160" blurEnabled="0" blurRadius="4" transform="matrix(1.02746,0,0,1.02746,710.5,340.5)" pers-center="0,0" pers-size="0,0" pers-start="0,0" pers-end="0,0" locked="0" mesh="" flag=""/>
            <path id="shapePath17" d="M680.5,340.5 C680.5,323.931 693.932,310.5 710.5,310.5 C727.069,310.5 740.5,323.931 740.5,340.5 C740.5,357.069 727.069,370.5 710.5,370.5 C693.932,370.5 680.5,357.069 680.5,340.5 Z" style="stroke:none;fill-rule:evenodd;fill:#000000;fill-opacity:1;"/>
        </g>
        <g id="Shape18">
            <desc type="0" basicInfo-basicType="4" basicInfo-roundedRectRadius="12" basicInfo-polygonSides="6" basicInfo-starPoints="5" bounding="rect(-29.1982,-29.1982,58.3965,58.3964)" text="" font-familyName="Helvetica" font-pixelSize="140" font-bold="0" font-underline="0" font-alignment="1" strokeStyle="0" markerStart="0" markerEnd="0" shadowEnabled="0" shadowOffsetX="0" shadowOffsetY="2" shadowBlur="4" shadowOpacity="160" blurEnabled="0" blurRadius="4" transform="matrix(1.02746,0,0,1.02746,710.5,1020.5)" pers-center="0,0" pers-size="0,0" pers-start="0,0" pers-end="0,0" locked="0" mesh="" flag=""/>
            <path id="shapePath18" d="M680.5,1020.5 C680.5,1003.93 693.932,990.5 710.5,990.5 C727.069,990.5 740.5,1003.93 740.5,1020.5 C740.5,1037.07 727.069,1050.5 710.5,1050.5 C693.931,1050.5 680.5,1037.07 680.5,1020.5 Z" style="stroke:none;fill-rule:evenodd;fill:#000000;fill-opacity:1;"/>
        </g>
    </g>
</svg>
