<?xml version="1.0"?>
<svg version="1.1" xmlns="http://www.w3.org/2000/svg" xmlns:xlink="http://www.w3.org/1999/xlink" width="1080" height="1080">
    <desc iVinci="yes" version="4.4" gridStep="10" showGrid="yes" snapToGrid="yes" codePlatform="0"/>
    <g id="Layer1">
        <g id="Shape1">
            <desc type="0" basicInfo-basicType="0" basicInfo-roundedRectRadius="12" basicInfo-polygonSides="6" basicInfo-starPoints="5" bounding="rect(0,0,0,0)" text="" font-familyName="" font-pixelSize="20" font-bold="0" font-underline="0" font-alignment="1" strokeStyle="0" markerStart="0" markerEnd="0" shadowEnabled="0" shadowOffsetX="0" shadowOffsetY="2" shadowBlur="4" shadowOpacity="160" blurEnabled="0" blurRadius="4" transform="matrix(1,0,0,1,851.559,501.63)" pers-center="0,0" pers-size="0,0" pers-start="0,0" pers-end="0,0" locked="0" mesh="" flag=""/>
            <path id="shapePath1" d="M851.559,501.63 Z" style="stroke:#000000;stroke-opacity:1;stroke-width:1.27391;stroke-linejoin:miter;stroke-miterlimit:2;stroke-linecap:butt;fill:none;"/>
        </g>
        <g id="Shape2">
            <desc type="0" basicInfo-basicType="0" basicInfo-roundedRectRadius="12" basicInfo-polygonSides="6" basicInfo-starPoints="5" bounding="rect(-10.0021,-128.295,20.0041,256.589)" text="" font-familyName="" font-pixelSize="20" font-bold="0" font-underline="0" font-alignment="1" strokeStyle="0" markerStart="0" markerEnd="0" shadowEnabled="0" shadowOffsetX="0" shadowOffsetY="2" shadowBlur="4" shadowOpacity="160" blurEnabled="0" blurRadius="4" transform="matrix(-3.86144e-06,-1,4.05317,-1.56511e-05,540.5,1020.5)" pers-center="0,0" pers-size="0,0" pers-start="0,0" pers-end="0,0" locked="0" mesh="" flag=""/>
            <path id="shapePath2" d="M20.5002,1030.5 L20.4999,1010.5 L1060.5,1010.5 L1060.5,1030.5 L20.5002,1030.5 Z" style="stroke:none;fill-rule:evenodd;fill:#000000;fill-opacity:1;"/>
        </g>
        <g id="Shape3">
            <desc type="2" basicInfo-basicType="0" basicInfo-roundedRectRadius="12" basicInfo-polygonSides="6" basicInfo-starPoints="5" bounding="rect(-74.9995,-75,149.999,150)" text="C2" font-familyName="Helvetica" font-pixelSize="140" font-bold="0" font-underline="0" font-alignment="1" strokeStyle="0" markerStart="0" markerEnd="0" shadowEnabled="0" shadowOffsetX="0" shadowOffsetY="2" shadowBlur="4" shadowOpacity="160" blurEnabled="0" blurRadius="4" transform="matrix(1,0,0,1,995.5,695.5)" pers-center="0,0" pers-size="0,0" pers-start="0,0" pers-end="0,0" locked="0" mesh="" flag=""/>
            <path id="shapePath3" d="M988.609,640.191 C995.627,646.891 999.524,654.501 1000.3,663.023 L987.037,663.023 C985.533,656.552 982.536,651.425 978.047,647.643 C973.558,643.86 967.258,641.969 959.146,641.969 C949.257,641.969 941.27,645.444 935.186,652.394 C929.102,659.343 926.06,669.996 926.06,684.352 C926.06,696.109 928.806,705.646 934.297,712.96 C939.789,720.274 947.981,723.932 958.873,723.932 C968.899,723.932 976.532,720.081 981.773,712.379 C984.553,708.323 986.626,702.991 987.994,696.383 L1001.26,696.383 C1000.07,706.956 996.151,715.82 989.498,722.975 C981.522,731.588 970.767,735.895 957.232,735.895 C945.565,735.895 935.767,732.363 927.837,725.299 C917.401,715.956 912.183,701.533 912.183,682.027 C912.183,667.216 916.102,655.071 923.941,645.592 C932.417,635.292 944.107,630.143 959.009,630.143 C971.724,630.143 981.591,633.492 988.609,640.191 M1016.73,711.285 C1019.76,705.042 1025.67,699.368 1034.47,694.264 L1047.59,686.676 C1053.47,683.258 1057.6,680.341 1059.97,677.926 C1063.7,674.143 1065.57,669.814 1065.57,664.938 C1065.57,659.241 1063.86,654.718 1060.44,651.368 C1057.03,648.019 1052.47,646.344 1046.77,646.344 C1038.34,646.344 1032.51,649.534 1029.27,655.914 C1027.54,659.332 1026.58,664.072 1026.4,670.133 L1013.89,670.133 C1014.03,661.611 1015.6,654.661 1018.61,649.283 C1023.94,639.804 1033.35,635.064 1046.84,635.064 C1058.05,635.064 1066.24,638.095 1071.42,644.156 C1076.59,650.217 1079.18,656.962 1079.18,664.391 C1079.18,672.229 1076.42,678.928 1070.9,684.488 C1067.71,687.724 1061.99,691.643 1053.75,696.246 L1044.38,701.441 C1039.91,703.902 1036.41,706.249 1033.85,708.482 C1029.3,712.447 1026.42,716.845 1025.24,721.676 L1078.7,721.676 L1078.7,733.297 L1011.5,733.297 C1011.96,724.866 1013.7,717.529 1016.73,711.285 " style="stroke:none;fill-rule:nonzero;fill:#000000;fill-opacity:1;"/>
        </g>
        <g id="Shape4">
            <desc type="0" basicInfo-basicType="4" basicInfo-roundedRectRadius="12" basicInfo-polygonSides="6" basicInfo-starPoints="5" bounding="rect(-29.1982,-29.1982,58.3965,58.3965)" text="" font-familyName="Helvetica" font-pixelSize="140" font-bold="0" font-underline="0" font-alignment="1" strokeStyle="0" markerStart="0" markerEnd="0" shadowEnabled="0" shadowOffsetX="0" shadowOffsetY="2" shadowBlur="4" shadowOpacity="160" blurEnabled="0" blurRadius="4" transform="matrix(1.02746,0,0,1.02746,710.5,340.5)" pers-center="0,0" pers-size="0,0" pers-start="0,0" pers-end="0,0" locked="0" mesh="" flag=""/>
            <path id="shapePath4" d="M680.5,340.5 C680.5,323.931 693.932,310.5 710.5,310.5 C727.069,310.5 740.5,323.931 740.5,340.5 C740.5,357.069 727.069,370.5 710.5,370.5 C693.932,370.5 680.5,357.069 680.5,340.5 Z" style="stroke:none;fill-rule:evenodd;fill:#000000;fill-opacity:1;"/>
        </g>
        <g id="Shape5">
            <desc type="0" basicInfo-basicType="4" basicInfo-roundedRectRadius="12" basicInfo-polygonSides="6" basicInfo-starPoints="5" bounding="rect(-29.1982,-29.1982,58.3965,58.3964)" text="" font-familyName="Helvetica" font-pixelSize="140" font-bold="0" font-underline="0" font-alignment="1" strokeStyle="0" markerStart="0" markerEnd="0" shadowEnabled="0" shadowOffsetX="0" shadowOffsetY="2" shadowBlur="4" shadowOpacity="160" blurEnabled="0" blurRadius="4" transform="matrix(1.02746,0,0,1.02746,710.5,1020.5)" pers-center="0,0" pers-size="0,0" pers-start="0,0" pers-end="0,0" locked="0" mesh="" flag=""/>
            <path id="shapePath5" d="M680.5,1020.5 C680.5,1003.93 693.932,990.5 710.5,990.5 C727.069,990.5 740.5,1003.93 740.5,1020.5 C740.5,1037.07 727.069,1050.5 710.5,1050.5 C693.931,1050.5 680.5,1037.07 680.5,1020.5 Z" style="stroke:none;fill-rule:evenodd;fill:#000000;fill-opacity:1;"/>
        </g>
        <g id="Shape6">
            <desc type="0" basicInfo-basicType="0" basicInfo-roundedRectRadius="12" basicInfo-polygonSides="6" basicInfo-starPoints="5" bounding="rect(-10,-170,20,340)" text="" font-familyName="" font-pixelSize="20" font-bold="0" font-underline="0" font-alignment="1" strokeStyle="0" markerStart="0" markerEnd="0" shadowEnabled="0" shadowOffsetX="0" shadowOffsetY="2" shadowBlur="4" shadowOpacity="160" blurEnabled="0" blurRadius="4" transform="matrix(1,0,0,0.852941,710.5,475.5)" pers-center="0,0" pers-size="0,0" pers-start="0,0" pers-end="0,0" locked="0" mesh="" flag=""/>
            <path id="shapePath6" d="M700.5,330.5 L720.5,330.5 L720.5,620.5 L700.5,620.5 L700.5,330.5 Z" style="stroke:none;fill-rule:evenodd;fill:#000000;fill-opacity:1;"/>
        </g>
        <g id="Shape7">
            <desc type="0" basicInfo-basicType="0" basicInfo-roundedRectRadius="12" basicInfo-polygonSides="6" basicInfo-starPoints="5" bounding="rect(-10,-170,20,340)" text="" font-familyName="" font-pixelSize="20" font-bold="0" font-underline="0" font-alignment="1" strokeStyle="0" markerStart="0" markerEnd="0" shadowEnabled="0" shadowOffsetX="0" shadowOffsetY="2" shadowBlur="4" shadowOpacity="160" blurEnabled="0" blurRadius="4" transform="matrix(1,0,0,0.852941,710.5,885.5)" pers-center="0,0" pers-size="0,0" pers-start="0,0" pers-end="0,0" locked="0" mesh="" flag=""/>
            <path id="shapePath7" d="M700.5,740.5 L720.5,740.5 L720.5,1030.5 L700.5,1030.5 L700.5,740.5 Z" style="stroke:none;fill-rule:evenodd;fill:#000000;fill-opacity:1;"/>
        </g>
        <g id="Shape8">
            <desc type="0" basicInfo-basicType="0" basicInfo-roundedRectRadius="12" basicInfo-polygonSides="6" basicInfo-starPoints="5" bounding="rect(-200,-10,400,20)" text="" font-familyName="" font-pixelSize="20" font-bold="0" font-underline="0" font-alignment="1" strokeStyle="0" markerStart="0" markerEnd="0" shadowEnabled="0" shadowOffsetX="0" shadowOffsetY="2" shadowBlur="4" shadowOpacity="160" blurEnabled="0" blurRadius="4" transform="matrix(1,0,0,1,710.5,630.5)" pers-center="0,0" pers-size="0,0" pers-start="0,0" pers-end="0,0" locked="0" mesh="" flag=""/>
            <path id="shapePath8" d="M910.5,620.5 L910.5,640.5 L510.5,640.5 L510.5,620.5 L910.5,620.5 Z" style="stroke:none;fill-rule:evenodd;fill:#000000;fill-opacity:1;"/>
        </g>
        <g id="Shape9">
            <desc type="0" basicInfo-basicType="0" basicInfo-roundedRectRadius="12" basicInfo-polygonSides="6" basicInfo-starPoints="5" bounding="rect(-200,-10,400,20)" text="" font-familyName="" font-pixelSize="20" font-bold="0" font-underline="0" font-alignment="1" strokeStyle="0" markerStart="0" markerEnd="0" shadowEnabled="0" shadowOffsetX="0" shadowOffsetY="2" shadowBlur="4" shadowOpacity="160" blurEnabled="0" blurRadius="4" transform="matrix(1,0,0,1,710.5,730.5)" pers-center="0,0" pers-size="0,0" pers-start="0,0" pers-end="0,0" locked="0" mesh="" flag=""/>
            <path id="shapePath9" d="M910.5,720.5 L910.5,740.5 L510.5,740.5 L510.5,720.5 L910.5,720.5 Z" style="stroke:none;fill-rule:evenodd;fill:#000000;fill-opacity:1;"/>
        </g>
        <g id="Shape10">
            <desc type="0" basicInfo-basicType="0" basicInfo-roundedRectRadius="12" basicInfo-polygonSides="6" basicInfo-starPoints="5" bounding="rect(-10,-170,20,340)" text="" font-familyName="" font-pixelSize="20" font-bold="0" font-underline="0" font-alignment="1" strokeStyle="0" markerStart="0" markerEnd="0" shadowEnabled="0" shadowOffsetX="0" shadowOffsetY="2" shadowBlur="4" shadowOpacity="160" blurEnabled="0" blurRadius="4" transform="matrix(-3.59445e-06,-1,0.852941,-3.06585e-06,165.499,340.499)" pers-center="0,0" pers-size="0,0" pers-start="0,0" pers-end="0,0" locked="0" mesh="" flag=""/>
            <path id="shapePath10" d="M20.4993,350.5 L20.4993,330.5 L310.499,330.499 L310.499,350.499 L20.4993,350.5 Z" style="stroke:none;fill-rule:evenodd;fill:#000000;fill-opacity:1;"/>
        </g>
        <g id="Shape11">
            <desc type="0" basicInfo-basicType="0" basicInfo-roundedRectRadius="12" basicInfo-polygonSides="6" basicInfo-starPoints="5" bounding="rect(-10,-170,20,340)" text="" font-familyName="" font-pixelSize="20" font-bold="0" font-underline="0" font-alignment="1" strokeStyle="0" markerStart="0" markerEnd="0" shadowEnabled="0" shadowOffsetX="0" shadowOffsetY="2" shadowBlur="4" shadowOpacity="160" blurEnabled="0" blurRadius="4" transform="matrix(-3.59445e-06,-1,1.85294,-6.66031e-06,745.5,340.497)" pers-center="0,0" pers-size="0,0" pers-start="0,0" pers-end="0,0" locked="0" mesh="" flag=""/>
            <path id="shapePath11" d="M430.499,350.499 L430.499,330.499 L1060.5,330.496 L1060.5,350.496 L430.499,350.499 Z" style="stroke:none;fill-rule:evenodd;fill:#000000;fill-opacity:1;"/>
        </g>
        <g id="Shape12">
            <desc type="0" basicInfo-basicType="0" basicInfo-roundedRectRadius="12" basicInfo-polygonSides="6" basicInfo-starPoints="5" bounding="rect(-200,-10,400,20)" text="" font-familyName="" font-pixelSize="20" font-bold="0" font-underline="0" font-alignment="1" strokeStyle="0" markerStart="0" markerEnd="0" shadowEnabled="0" shadowOffsetX="0" shadowOffsetY="2" shadowBlur="4" shadowOpacity="160" blurEnabled="0" blurRadius="4" transform="matrix(-3.59445e-06,-1,1,-3.59445e-06,320.499,340.499)" pers-center="0,0" pers-size="0,0" pers-start="0,0" pers-end="0,0" locked="0" mesh="" flag=""/>
            <path id="shapePath12" d="M310.499,140.499 L330.499,140.499 L330.5,540.499 L310.5,540.499 L310.499,140.499 Z" style="stroke:none;fill-rule:evenodd;fill:#000000;fill-opacity:1;"/>
        </g>
        <g id="Shape13">
            <desc type="0" basicInfo-basicType="0" basicInfo-roundedRectRadius="12" basicInfo-polygonSides="6" basicInfo-starPoints="5" bounding="rect(-200,-10,400,20)" text="" font-familyName="" font-pixelSize="20" font-bold="0" font-underline="0" font-alignment="1" strokeStyle="0" markerStart="0" markerEnd="0" shadowEnabled="0" shadowOffsetX="0" shadowOffsetY="2" shadowBlur="4" shadowOpacity="160" blurEnabled="0" blurRadius="4" transform="matrix(-3.59445e-06,-1,1,-3.59445e-06,420.499,340.499)" pers-center="0,0" pers-size="0,0" pers-start="0,0" pers-end="0,0" locked="0" mesh="" flag=""/>
            <path id="shapePath13" d="M410.499,140.499 L430.499,140.499 L430.5,540.499 L410.5,540.499 L410.499,140.499 Z" style="stroke:none;fill-rule:evenodd;fill:#000000;fill-opacity:1;"/>
        </g>
        <g id="Shape14">
            <desc type="2" basicInfo-basicType="0" basicInfo-roundedRectRadius="12" basicInfo-polygonSides="6" basicInfo-starPoints="5" bounding="rect(-74.9995,-75,149.999,150)" text="C1" font-familyName="Helvetica" font-pixelSize="140" font-bold="0" font-underline="0" font-alignment="1" strokeStyle="0" markerStart="0" markerEnd="0" shadowEnabled="0" shadowOffsetX="0" shadowOffsetY="2" shadowBlur="4" shadowOpacity="160" blurEnabled="0" blurRadius="4" transform="matrix(1,0,0,1,375.5,85.5)" pers-center="0,0" pers-size="0,0" pers-start="0,0" pers-end="0,0" locked="0" mesh="" flag=""/>
            <path id="shapePath14" d="M368.609,30.1914 C375.627,36.8906 379.524,44.5013 380.298,53.0234 L367.037,53.0234 C365.533,46.5521 362.536,41.4251 358.047,37.6426 C353.558,33.86 347.258,31.9688 339.146,31.9688 C329.257,31.9688 321.27,35.4437 315.186,42.3936 C309.102,49.3434 306.06,59.9961 306.06,74.3516 C306.06,86.1094 308.806,95.6455 314.297,102.96 C319.789,110.274 327.981,113.932 338.873,113.932 C348.899,113.932 356.532,110.081 361.773,102.379 C364.553,98.3229 366.626,92.9909 367.994,86.3828 L381.255,86.3828 C380.07,96.9557 376.151,105.82 369.498,112.975 C361.522,121.588 350.767,125.895 337.232,125.895 C325.565,125.895 315.767,122.363 307.837,115.299 C297.401,105.956 292.183,91.5326 292.183,72.0273 C292.183,57.2161 296.102,45.071 303.941,35.5918 C312.417,25.2923 324.107,20.1426 339.009,20.1426 C351.724,20.1426 361.591,23.4922 368.609,30.1914 M400.523,53.9805 L400.523,44.5469 C409.41,43.681 415.608,42.2341 419.117,40.2061 C422.626,38.1781 425.246,33.3815 426.978,25.8164 L436.685,25.8164 L436.685,123.297 L423.56,123.297 L423.56,53.9805 L400.523,53.9805 " style="stroke:none;fill-rule:nonzero;fill:#000000;fill-opacity:1;"/>
        </g>
    </g>
</svg>
