<?xml version="1.0"?>
<svg version="1.1" xmlns="http://www.w3.org/2000/svg" xmlns:xlink="http://www.w3.org/1999/xlink" width="1080" height="1080">
    <desc iVinci="yes" version="4.4" gridStep="10" showGrid="yes" snapToGrid="yes" codePlatform="0"/>
    <g id="Layer1">
        <g id="Shape1">
            <desc type="0" basicInfo-basicType="0" basicInfo-roundedRectRadius="12" basicInfo-polygonSides="6" basicInfo-starPoints="5" bounding="rect(0,0,0,0)" text="" font-familyName="" font-pixelSize="20" font-bold="0" font-underline="0" font-alignment="1" strokeStyle="0" markerStart="0" markerEnd="0" shadowEnabled="0" shadowOffsetX="0" shadowOffsetY="2" shadowBlur="4" shadowOpacity="160" blurEnabled="0" blurRadius="4" transform="matrix(1,0,0,1,851.559,501.63)" pers-center="0,0" pers-size="0,0" pers-start="0,0" pers-end="0,0" locked="0" mesh="" flag=""/>
            <path id="shapePath1" d="M851.559,501.63 Z" style="stroke:#000000;stroke-opacity:1;stroke-width:1.27391;stroke-linejoin:miter;stroke-miterlimit:2;stroke-linecap:butt;fill:none;"/>
        </g>
        <g id="Shape2">
            <desc type="0" basicInfo-basicType="0" basicInfo-roundedRectRadius="12" basicInfo-polygonSides="6" basicInfo-starPoints="5" bounding="rect(-10,-128.295,20.0001,256.589)" text="" font-familyName="" font-pixelSize="20" font-bold="0" font-underline="0" font-alignment="1" strokeStyle="0" markerStart="0" markerEnd="0" shadowEnabled="0" shadowOffsetX="0" shadowOffsetY="2" shadowBlur="4" shadowOpacity="160" blurEnabled="0" blurRadius="4" transform="matrix(3.86144e-06,-1,-4.05317,-1.56511e-05,540.5,340.5)" pers-center="0,0" pers-size="0,0" pers-start="0,0" pers-end="0,0" locked="0" mesh="" flag=""/>
            <path id="shapePath2" d="M1060.5,350.502 L1060.5,330.502 L20.5003,330.498 L20.5002,350.498 L1060.5,350.502 Z" style="stroke:none;fill-rule:evenodd;fill:#000000;fill-opacity:1;"/>
        </g>
        <g id="Shape3">
            <desc type="0" basicInfo-basicType="0" basicInfo-roundedRectRadius="12" basicInfo-polygonSides="6" basicInfo-starPoints="5" bounding="rect(-10.002,-128.295,20.004,256.589)" text="" font-familyName="" font-pixelSize="20" font-bold="0" font-underline="0" font-alignment="1" strokeStyle="0" markerStart="0" markerEnd="0" shadowEnabled="0" shadowOffsetX="0" shadowOffsetY="2" shadowBlur="4" shadowOpacity="160" blurEnabled="0" blurRadius="4" transform="matrix(3.86144e-06,-1,-4.05317,-1.56511e-05,540.498,1020.5)" pers-center="0,0" pers-size="0,0" pers-start="0,0" pers-end="0,0" locked="0" mesh="" flag=""/>
            <path id="shapePath3" d="M1060.5,1030.5 L1060.5,1010.5 L20.5001,1010.5 L20.4998,1030.5 L1060.5,1030.5 Z" style="stroke:none;fill-rule:evenodd;fill:#000000;fill-opacity:1;"/>
        </g>
        <g id="Shape4">
            <desc type="2" basicInfo-basicType="0" basicInfo-roundedRectRadius="12" basicInfo-polygonSides="6" basicInfo-starPoints="5" bounding="rect(-520,-350,1040,700)" text="Kein Anpassnetzwerk notwendig" font-familyName="Helvetica" font-pixelSize="140" font-bold="0" font-underline="0" font-alignment="1" strokeStyle="0" markerStart="0" markerEnd="0" shadowEnabled="0" shadowOffsetX="0" shadowOffsetY="2" shadowBlur="4" shadowOpacity="160" blurEnabled="0" blurRadius="4" transform="matrix(1,0,0,1,540.5,680.5)" pers-center="0,0" pers-size="0,0" pers-start="0,0" pers-end="0,0" locked="0" mesh="" flag=""/>
            <path id="shapePath4" d="M411.07,477.893 L424.332,477.893 L424.332,526.838 L473.277,477.893 L492.076,477.893 L450.309,518.361 L493.238,578.312 L475.533,578.312 L440.396,527.932 L424.332,543.312 L424.332,578.312 L411.07,578.312 L411.07,477.893 M548.4,507.116 C553.277,509.554 556.991,512.71 559.543,516.584 C562.004,520.275 563.645,524.582 564.465,529.504 C565.194,532.876 565.559,538.254 565.559,545.637 L511.896,545.637 C512.124,553.065 513.879,559.024 517.16,563.513 C520.441,568.002 525.523,570.246 532.404,570.246 C538.83,570.246 543.957,568.127 547.785,563.889 C549.973,561.428 551.522,558.579 552.434,555.344 L564.533,555.344 C564.214,558.032 563.155,561.029 561.354,564.333 C559.554,567.637 557.538,570.337 555.305,572.434 C551.568,576.079 546.942,578.54 541.428,579.816 C538.466,580.546 535.116,580.91 531.379,580.91 C522.264,580.91 514.54,577.595 508.205,570.964 C501.87,564.333 498.703,555.047 498.703,543.107 C498.703,531.35 501.893,521.802 508.273,514.465 C514.654,507.128 522.993,503.459 533.293,503.459 C538.488,503.459 543.524,504.678 548.4,507.116 M552.912,535.861 C552.411,530.529 551.249,526.268 549.426,523.078 C546.053,517.154 540.425,514.191 532.541,514.191 C526.89,514.191 522.15,516.231 518.322,520.31 C514.494,524.388 512.466,529.572 512.238,535.861 L552.912,535.861 M580.664,505.441 L593.174,505.441 L593.174,578.312 L580.664,578.312 L580.664,505.441 M580.664,477.893 L593.174,477.893 L593.174,491.838 L580.664,491.838 L580.664,477.893 M611.758,505.1 L623.447,505.1 L623.447,515.49 C626.911,511.206 630.579,508.13 634.453,506.262 C638.327,504.393 642.633,503.459 647.373,503.459 C657.764,503.459 664.782,507.082 668.428,514.328 C670.433,518.293 671.436,523.967 671.436,531.35 L671.436,578.312 L658.926,578.312 L658.926,532.17 C658.926,527.704 658.265,524.103 656.943,521.369 C654.756,516.812 650.791,514.533 645.049,514.533 C642.132,514.533 639.74,514.829 637.871,515.422 C634.499,516.424 631.536,518.43 628.984,521.437 C626.934,523.853 625.601,526.348 624.985,528.923 C624.37,531.498 624.062,535.178 624.062,539.963 L624.062,578.312 L611.758,578.312 L611.758,505.1 M89.1445,677.16 L73.9003,632.795 L57.6992,677.16 L89.1445,677.16 M66.791,617.893 L82.1718,617.893 L118.607,718.312 L103.705,718.312 L93.5195,688.234 L53.8027,688.234 L42.9335,718.312 L28.9882,718.312 L66.791,617.893 M129.336,645.1 L141.025,645.1 L141.025,655.49 C144.489,651.206 148.158,648.13 152.031,646.262 C155.905,644.393 160.212,643.459 164.951,643.459 C175.342,643.459 182.36,647.082 186.006,654.328 C188.011,658.293 189.014,663.967 189.014,671.35 L189.014,718.312 L176.504,718.312 L176.504,672.17 C176.504,667.704 175.843,664.103 174.521,661.369 C172.334,656.812 168.369,654.533 162.627,654.533 C159.71,654.533 157.318,654.829 155.449,655.422 C152.077,656.424 149.115,658.43 146.562,661.437 C144.512,663.853 143.179,666.348 142.563,668.923 C141.948,671.498 141.641,675.178 141.641,679.963 L141.641,718.312 L129.336,718.312 L129.336,645.1 M252.415,702.829 C256.22,698.021 258.123,690.832 258.123,681.262 C258.123,675.428 257.28,670.415 255.594,666.223 C252.404,658.156 246.57,654.123 238.094,654.123 C229.572,654.123 223.738,658.384 220.594,666.906 C218.908,671.464 218.064,677.251 218.064,684.269 C218.064,689.921 218.908,694.728 220.594,698.693 C223.784,706.258 229.617,710.041 238.094,710.041 C243.836,710.041 248.61,707.637 252.415,702.829 M206.238,645.441 L218.201,645.441 L218.201,655.148 C220.662,651.822 223.351,649.247 226.268,647.424 C230.415,644.689 235.291,643.322 240.896,643.322 C249.191,643.322 256.232,646.501 262.02,652.858 C267.807,659.216 270.701,668.296 270.701,680.1 C270.701,696.05 266.531,707.443 258.191,714.279 C252.905,718.609 246.753,720.773 239.734,720.773 C234.22,720.773 229.594,719.566 225.857,717.15 C223.67,715.783 221.232,713.436 218.543,710.109 L218.543,747.502 L206.238,747.502 L206.238,645.441 M298.385,707.238 C300.982,709.289 304.059,710.314 307.613,710.314 C311.943,710.314 316.135,709.312 320.191,707.307 C327.027,703.98 330.445,698.534 330.445,690.969 L330.445,681.057 C328.941,682.014 327.005,682.811 324.635,683.449 C322.265,684.087 319.941,684.543 317.662,684.816 L310.211,685.773 C305.745,686.366 302.395,687.3 300.162,688.576 C296.38,690.718 294.488,694.136 294.488,698.83 C294.488,702.385 295.787,705.187 298.385,707.238 M324.293,673.947 C327.118,673.583 329.01,672.398 329.967,670.393 C330.514,669.299 330.787,667.727 330.787,665.676 C330.787,661.483 329.295,658.441 326.31,656.55 C323.324,654.658 319.052,653.713 313.492,653.713 C307.066,653.713 302.509,655.445 299.82,658.908 C298.316,660.822 297.337,663.671 296.881,667.453 L285.396,667.453 C285.624,658.43 288.552,652.152 294.181,648.62 C299.809,645.088 306.337,643.322 313.766,643.322 C322.379,643.322 329.374,644.963 334.752,648.244 C340.084,651.525 342.75,656.63 342.75,663.557 L342.75,705.734 C342.75,707.01 343.012,708.036 343.536,708.81 C344.06,709.585 345.165,709.973 346.852,709.973 C347.398,709.973 348.014,709.938 348.697,709.87 C349.381,709.802 350.11,709.699 350.885,709.562 L350.885,718.654 C348.971,719.201 347.512,719.543 346.51,719.68 C345.507,719.816 344.14,719.885 342.408,719.885 C338.17,719.885 335.094,718.381 333.18,715.373 C332.177,713.778 331.471,711.522 331.061,708.605 C328.554,711.887 324.954,714.735 320.26,717.15 C315.566,719.566 310.393,720.773 304.742,720.773 C297.952,720.773 292.403,718.711 288.097,714.587 C283.79,710.463 281.637,705.301 281.637,699.103 C281.637,692.313 283.756,687.049 287.994,683.312 C292.232,679.575 297.792,677.274 304.674,676.408 L324.293,673.947 M370.228,695.344 C370.593,699.445 371.618,702.59 373.305,704.777 C376.404,708.742 381.781,710.725 389.438,710.725 C393.995,710.725 398.005,709.733 401.469,707.751 C404.932,705.768 406.664,702.704 406.664,698.557 C406.664,695.412 405.274,693.019 402.494,691.379 C400.717,690.376 397.208,689.214 391.967,687.893 L382.191,685.432 C375.948,683.882 371.345,682.15 368.383,680.236 C363.096,676.909 360.453,672.307 360.453,666.428 C360.453,659.501 362.948,653.895 367.938,649.611 C372.929,645.327 379.639,643.185 388.07,643.185 C399.099,643.185 407.051,646.421 411.928,652.893 C414.981,656.994 416.462,661.415 416.371,666.154 L404.75,666.154 C404.522,663.374 403.542,660.845 401.811,658.566 C398.985,655.331 394.086,653.713 387.113,653.713 C382.465,653.713 378.944,654.602 376.552,656.379 C374.159,658.156 372.963,660.503 372.963,663.42 C372.963,666.61 374.535,669.162 377.68,671.076 C379.503,672.215 382.191,673.218 385.746,674.084 L393.881,676.066 C402.722,678.208 408.646,680.282 411.654,682.287 C416.439,685.432 418.832,690.376 418.832,697.121 C418.832,703.638 416.36,709.266 411.415,714.006 C406.47,718.745 398.939,721.115 388.822,721.115 C377.93,721.115 370.217,718.643 365.683,713.698 C361.148,708.754 358.721,702.635 358.402,695.344 L370.228,695.344 M440.229,695.344 C440.593,699.445 441.618,702.59 443.305,704.777 C446.404,708.742 451.781,710.725 459.438,710.725 C463.995,710.725 468.005,709.733 471.469,707.751 C474.932,705.768 476.664,702.704 476.664,698.557 C476.664,695.412 475.274,693.019 472.494,691.379 C470.717,690.376 467.208,689.214 461.967,687.893 L452.191,685.432 C445.948,683.882 441.345,682.15 438.383,680.236 C433.096,676.909 430.453,672.307 430.453,666.428 C430.453,659.501 432.948,653.895 437.938,649.611 C442.929,645.327 449.639,643.185 458.07,643.185 C469.099,643.185 477.051,646.421 481.928,652.893 C484.981,656.994 486.462,661.415 486.371,666.154 L474.75,666.154 C474.522,663.374 473.542,660.845 471.811,658.566 C468.985,655.331 464.086,653.713 457.113,653.713 C452.465,653.713 448.944,654.602 446.552,656.379 C444.159,658.156 442.963,660.503 442.963,663.42 C442.963,666.61 444.535,669.162 447.68,671.076 C449.503,672.215 452.191,673.218 455.746,674.084 L463.881,676.066 C472.722,678.208 478.646,680.282 481.654,682.287 C486.439,685.432 488.832,690.376 488.832,697.121 C488.832,703.638 486.36,709.266 481.415,714.006 C476.47,718.745 468.939,721.115 458.822,721.115 C447.93,721.115 440.217,718.643 435.683,713.698 C431.148,708.754 428.721,702.635 428.402,695.344 L440.229,695.344 M502.914,645.1 L514.604,645.1 L514.604,655.49 C518.067,651.206 521.736,648.13 525.609,646.262 C529.483,644.393 533.79,643.459 538.529,643.459 C548.92,643.459 555.938,647.082 559.584,654.328 C561.589,658.293 562.592,663.967 562.592,671.35 L562.592,718.312 L550.082,718.312 L550.082,672.17 C550.082,667.704 549.421,664.103 548.1,661.369 C545.912,656.812 541.947,654.533 536.205,654.533 C533.288,654.533 530.896,654.829 529.027,655.422 C525.655,656.424 522.693,658.43 520.141,661.437 C518.09,663.853 516.757,666.348 516.142,668.923 C515.526,671.498 515.219,675.178 515.219,679.963 L515.219,718.312 L502.914,718.312 L502.914,645.1 M626.369,647.116 C631.245,649.554 634.96,652.71 637.512,656.584 C639.973,660.275 641.613,664.582 642.434,669.504 C643.163,672.876 643.527,678.254 643.527,685.637 L589.865,685.637 C590.093,693.065 591.848,699.024 595.129,703.513 C598.41,708.002 603.492,710.246 610.373,710.246 C616.799,710.246 621.926,708.127 625.754,703.889 C627.941,701.428 629.491,698.579 630.402,695.344 L642.502,695.344 C642.183,698.032 641.123,701.029 639.323,704.333 C637.523,707.637 635.507,710.337 633.273,712.434 C629.536,716.079 624.911,718.54 619.396,719.816 C616.434,720.546 613.085,720.91 609.348,720.91 C600.233,720.91 592.508,717.595 586.174,710.964 C579.839,704.333 576.672,695.047 576.672,683.107 C576.672,671.35 579.862,661.802 586.242,654.465 C592.622,647.128 600.962,643.459 611.262,643.459 C616.457,643.459 621.493,644.678 626.369,647.116 M630.881,675.861 C630.38,670.529 629.217,666.268 627.395,663.078 C624.022,657.154 618.394,654.191 610.51,654.191 C604.859,654.191 600.119,656.231 596.291,660.31 C592.463,664.388 590.435,669.572 590.207,675.861 L630.881,675.861 M661.094,624.66 L673.535,624.66 L673.535,645.1 L685.225,645.1 L685.225,655.148 L673.535,655.148 L673.535,702.932 C673.535,705.484 674.401,707.193 676.133,708.059 C677.09,708.56 678.685,708.81 680.918,708.81 C681.51,708.81 682.148,708.799 682.832,708.776 C683.516,708.754 684.313,708.697 685.225,708.605 L685.225,718.312 C683.812,718.723 682.342,719.019 680.815,719.201 C679.289,719.383 677.637,719.475 675.859,719.475 C670.117,719.475 666.221,718.005 664.17,715.065 C662.119,712.126 661.094,708.309 661.094,703.615 L661.094,655.148 L651.182,655.148 L651.182,645.1 L661.094,645.1 L661.094,624.66 M692.055,708.605 L735.463,656.105 L695.268,656.105 L695.268,645.1 L752.006,645.1 L752.006,655.148 L708.871,707.307 L753.305,707.307 L753.305,718.312 L692.055,718.312 L692.055,708.605 M773.197,645.1 L787.279,702.795 L801.566,645.1 L815.375,645.1 L829.731,702.453 L844.701,645.1 L857.006,645.1 L835.746,718.312 L822.963,718.312 L808.061,661.643 L793.637,718.312 L780.854,718.312 L759.73,645.1 L773.197,645.1 M914.213,647.116 C919.089,649.554 922.803,652.71 925.356,656.584 C927.816,660.275 929.457,664.582 930.277,669.504 C931.007,672.876 931.371,678.254 931.371,685.637 L877.709,685.637 C877.937,693.065 879.691,699.024 882.973,703.513 C886.254,708.002 891.335,710.246 898.217,710.246 C904.643,710.246 909.77,708.127 913.598,703.889 C915.785,701.428 917.335,698.579 918.246,695.344 L930.346,695.344 C930.027,698.032 928.967,701.029 927.167,704.333 C925.367,707.637 923.35,710.337 921.117,712.434 C917.38,716.079 912.755,718.54 907.24,719.816 C904.278,720.546 900.928,720.91 897.191,720.91 C888.077,720.91 880.352,717.595 874.018,710.964 C867.683,704.333 864.516,695.047 864.516,683.107 C864.516,671.35 867.706,661.802 874.086,654.465 C880.466,647.128 888.806,643.459 899.106,643.459 C904.301,643.459 909.337,644.678 914.213,647.116 M918.725,675.861 C918.223,670.529 917.061,666.268 915.238,663.078 C911.866,657.154 906.238,654.191 898.354,654.191 C892.703,654.191 887.963,656.231 884.135,660.31 C880.307,664.388 878.279,669.572 878.051,675.861 L918.725,675.861 M946.818,645.1 L958.508,645.1 L958.508,657.746 C959.465,655.285 961.812,652.289 965.549,648.757 C969.286,645.225 973.593,643.459 978.469,643.459 C978.697,643.459 979.084,643.482 979.631,643.527 C980.178,643.573 981.112,643.664 982.434,643.801 L982.434,656.789 C981.704,656.652 981.032,656.561 980.417,656.516 C979.802,656.47 979.13,656.447 978.4,656.447 C972.203,656.447 967.44,658.441 964.113,662.429 C960.786,666.416 959.123,671.008 959.123,676.203 L959.123,718.312 L946.818,718.312 L946.818,645.1 M992.813,617.893 L1004.64,617.893 L1004.64,676.203 L1036.22,645.1 L1051.94,645.1 L1023.92,672.512 L1053.52,718.312 L1037.79,718.312 L1014.96,681.398 L1004.64,690.832 L1004.64,718.312 L992.813,718.312 L992.813,617.893 M230.414,785.1 L242.103,785.1 L242.103,795.49 C245.567,791.206 249.236,788.13 253.109,786.262 C256.983,784.393 261.29,783.459 266.029,783.459 C276.42,783.459 283.438,787.082 287.084,794.328 C289.089,798.293 290.092,803.967 290.092,811.35 L290.092,858.312 L277.582,858.312 L277.582,812.17 C277.582,807.704 276.921,804.104 275.6,801.369 C273.412,796.812 269.447,794.533 263.705,794.533 C260.788,794.533 258.396,794.829 256.527,795.422 C253.155,796.424 250.193,798.43 247.641,801.438 C245.59,803.853 244.257,806.348 243.642,808.923 C243.026,811.498 242.719,815.178 242.719,819.963 L242.719,858.312 L230.414,858.312 L230.414,785.1 M354.108,841.12 C357.139,834.945 358.654,828.075 358.654,820.51 C358.654,813.674 357.561,808.114 355.373,803.83 C351.909,797.085 345.939,793.713 337.463,793.713 C329.943,793.713 324.475,796.584 321.057,802.326 C317.639,808.068 315.93,814.995 315.93,823.107 C315.93,830.9 317.639,837.395 321.057,842.59 C324.475,847.785 329.898,850.383 337.326,850.383 C345.484,850.383 351.078,847.295 354.108,841.12 M361.73,792.414 C368.247,798.703 371.506,807.954 371.506,820.168 C371.506,831.971 368.635,841.724 362.893,849.426 C357.15,857.128 348.241,860.979 336.164,860.979 C326.092,860.979 318.094,857.572 312.17,850.759 C306.245,843.946 303.283,834.797 303.283,823.312 C303.283,811.008 306.405,801.21 312.648,793.918 C318.892,786.626 327.277,782.98 337.805,782.98 C347.238,782.98 355.214,786.125 361.73,792.414 M388.594,764.66 L401.035,764.66 L401.035,785.1 L412.725,785.1 L412.725,795.148 L401.035,795.148 L401.035,842.932 C401.035,845.484 401.901,847.193 403.633,848.059 C404.59,848.56 406.185,848.811 408.418,848.811 C409.01,848.811 409.648,848.799 410.332,848.776 C411.016,848.754 411.813,848.697 412.725,848.605 L412.725,858.312 C411.312,858.723 409.842,859.019 408.315,859.201 C406.789,859.383 405.137,859.475 403.359,859.475 C397.617,859.475 393.721,858.005 391.67,855.065 C389.619,852.126 388.594,848.309 388.594,843.615 L388.594,795.148 L378.682,795.148 L378.682,785.1 L388.594,785.1 L388.594,764.66 M430.697,785.1 L444.779,842.795 L459.066,785.1 L472.875,785.1 L487.23,842.453 L502.201,785.1 L514.506,785.1 L493.246,858.312 L480.463,858.312 L465.561,801.643 L451.137,858.312 L438.354,858.312 L417.23,785.1 L430.697,785.1 M571.713,787.116 C576.589,789.554 580.303,792.71 582.855,796.584 C585.316,800.275 586.957,804.582 587.777,809.504 C588.507,812.876 588.871,818.254 588.871,825.637 L535.209,825.637 C535.437,833.065 537.191,839.024 540.473,843.513 C543.754,848.002 548.835,850.246 555.717,850.246 C562.143,850.246 567.27,848.127 571.098,843.889 C573.285,841.428 574.835,838.579 575.746,835.344 L587.846,835.344 C587.527,838.033 586.467,841.029 584.667,844.333 C582.867,847.637 580.85,850.337 578.617,852.434 C574.88,856.079 570.255,858.54 564.74,859.816 C561.778,860.546 558.428,860.91 554.691,860.91 C545.577,860.91 537.852,857.595 531.518,850.964 C525.183,844.333 522.016,835.048 522.016,823.107 C522.016,811.35 525.206,801.802 531.586,794.465 C537.966,787.128 546.306,783.459 556.605,783.459 C561.801,783.459 566.837,784.678 571.713,787.116 M576.225,815.861 C575.723,810.529 574.561,806.268 572.738,803.078 C569.366,797.154 563.738,794.191 555.854,794.191 C550.202,794.191 545.463,796.231 541.635,800.31 C537.807,804.388 535.779,809.572 535.551,815.861 L576.225,815.861 M603.977,785.1 L615.666,785.1 L615.666,795.49 C619.13,791.206 622.798,788.13 626.672,786.262 C630.546,784.393 634.852,783.459 639.592,783.459 C649.982,783.459 657.001,787.082 660.646,794.328 C662.652,798.293 663.654,803.967 663.654,811.35 L663.654,858.312 L651.145,858.312 L651.145,812.17 C651.145,807.704 650.484,804.104 649.162,801.369 C646.975,796.812 643.01,794.533 637.268,794.533 C634.351,794.533 631.958,794.829 630.09,795.422 C626.717,796.424 623.755,798.43 621.203,801.438 C619.152,803.853 617.819,806.348 617.204,808.923 C616.589,811.498 616.281,815.178 616.281,819.963 L616.281,858.312 L603.977,858.312 L603.977,785.1 M694.619,842.248 C697.946,847.534 703.278,850.178 710.615,850.178 C716.312,850.178 720.994,847.728 724.663,842.829 C728.332,837.93 730.166,830.9 730.166,821.74 C730.166,812.489 728.275,805.642 724.492,801.198 C720.71,796.755 716.038,794.533 710.479,794.533 C704.281,794.533 699.256,796.903 695.405,801.643 C691.554,806.382 689.629,813.355 689.629,822.561 C689.629,830.399 691.292,836.962 694.619,842.248 M722.236,787.355 C724.424,788.723 726.908,791.115 729.688,794.533 L729.688,757.551 L741.514,757.551 L741.514,858.312 L730.439,858.312 L730.439,848.127 C727.568,852.639 724.173,855.897 720.254,857.902 C716.335,859.908 711.846,860.91 706.787,860.91 C698.63,860.91 691.566,857.481 685.596,850.622 C679.626,843.763 676.641,834.637 676.641,823.244 C676.641,812.58 679.364,803.34 684.81,795.524 C690.256,787.709 698.037,783.801 708.154,783.801 C713.76,783.801 718.454,784.986 722.236,787.355 M759.695,785.441 L772.205,785.441 L772.205,858.312 L759.695,858.312 L759.695,785.441 M759.695,757.893 L772.205,757.893 L772.205,771.838 L759.695,771.838 L759.695,757.893 M831.668,788.039 C833.992,789.634 836.362,791.958 838.777,795.012 L838.777,785.783 L850.125,785.783 L850.125,852.365 C850.125,861.662 848.758,868.999 846.023,874.377 C840.919,884.312 831.281,889.279 817.107,889.279 C809.223,889.279 802.593,887.513 797.215,883.981 C791.837,880.45 788.829,874.924 788.191,867.404 L800.701,867.404 C801.294,870.686 802.479,873.215 804.256,874.992 C807.036,877.727 811.411,879.094 817.381,879.094 C826.815,879.094 832.99,875.767 835.906,869.113 C837.638,865.194 838.436,858.199 838.299,848.127 C835.838,851.864 832.876,854.644 829.412,856.467 C825.949,858.29 821.369,859.201 815.672,859.201 C807.742,859.201 800.804,856.387 794.857,850.759 C788.909,845.131 785.936,835.822 785.936,822.834 C785.936,810.575 788.932,801.005 794.925,794.123 C800.918,787.242 808.152,783.801 816.629,783.801 C822.371,783.801 827.384,785.214 831.668,788.039 M833.172,801.232 C829.435,796.857 824.673,794.67 818.885,794.67 C810.226,794.67 804.302,798.726 801.111,806.838 C799.425,811.167 798.582,816.841 798.582,823.859 C798.582,832.108 800.257,838.386 803.607,842.692 C806.956,846.999 811.456,849.152 817.107,849.152 C825.949,849.152 832.169,845.165 835.77,837.189 C837.775,832.678 838.777,827.414 838.777,821.398 C838.777,812.329 836.909,805.607 833.172,801.232 " style="stroke:none;fill-rule:nonzero;fill:#000000;fill-opacity:1;"/>
        </g>
    </g>
</svg>
