<?xml version="1.0"?>
<svg version="1.1" xmlns="http://www.w3.org/2000/svg" xmlns:xlink="http://www.w3.org/1999/xlink" width="1080" height="1080">
    <desc iVinci="yes" version="4.4" gridStep="10" showGrid="yes" snapToGrid="yes" codePlatform="0"/>
    <g id="Layer1">
        <g id="Shape1">
            <desc type="0" basicInfo-basicType="0" basicInfo-roundedRectRadius="12" basicInfo-polygonSides="6" basicInfo-starPoints="5" bounding="rect(0,0,0,0)" text="" font-familyName="" font-pixelSize="20" font-bold="0" font-underline="0" font-alignment="1" strokeStyle="0" markerStart="0" markerEnd="0" shadowEnabled="0" shadowOffsetX="0" shadowOffsetY="2" shadowBlur="4" shadowOpacity="160" blurEnabled="0" blurRadius="4" transform="matrix(-1,0,0,1,-810.56,501.63)" pers-center="0,0" pers-size="0,0" pers-start="0,0" pers-end="0,0" locked="0" mesh="" flag=""/>
            <path id="shapePath1" d="M-810.56,501.63 Z" style="stroke:#000000;stroke-opacity:1;stroke-width:1.27391;stroke-linejoin:miter;stroke-miterlimit:2;stroke-linecap:butt;fill:none;"/>
        </g>
        <g id="Shape2">
            <desc type="0" basicInfo-basicType="0" basicInfo-roundedRectRadius="12" basicInfo-polygonSides="6" basicInfo-starPoints="5" bounding="rect(-10.0021,-128.295,20.0041,256.589)" text="" font-familyName="" font-pixelSize="20" font-bold="0" font-underline="0" font-alignment="1" strokeStyle="0" markerStart="0" markerEnd="0" shadowEnabled="0" shadowOffsetX="0" shadowOffsetY="2" shadowBlur="4" shadowOpacity="160" blurEnabled="0" blurRadius="4" transform="matrix(3.86144e-06,-1,-4.05317,-1.56511e-05,540.498,1020.5)" pers-center="0,0" pers-size="0,0" pers-start="0,0" pers-end="0,0" locked="0" mesh="" flag=""/>
            <path id="shapePath2" d="M1060.5,1030.5 L1060.5,1010.5 L20.5001,1010.5 L20.4999,1030.5 L1060.5,1030.5 Z" style="stroke:none;fill-rule:evenodd;fill:#000000;fill-opacity:1;"/>
        </g>
        <g id="Shape3">
            <desc type="0" basicInfo-basicType="4" basicInfo-roundedRectRadius="12" basicInfo-polygonSides="6" basicInfo-starPoints="5" bounding="rect(-29.1982,-29.1982,58.3965,58.3965)" text="" font-familyName="Helvetica" font-pixelSize="140" font-bold="0" font-underline="0" font-alignment="1" strokeStyle="0" markerStart="0" markerEnd="0" shadowEnabled="0" shadowOffsetX="0" shadowOffsetY="2" shadowBlur="4" shadowOpacity="160" blurEnabled="0" blurRadius="4" transform="matrix(-1.02746,0,0,1.02746,370.5,340.501)" pers-center="0,0" pers-size="0,0" pers-start="0,0" pers-end="0,0" locked="0" mesh="" flag=""/>
            <path id="shapePath3" d="M400.5,340.501 C400.5,323.932 387.068,310.501 370.5,310.501 C353.931,310.501 340.5,323.932 340.5,340.501 C340.5,357.07 353.931,370.501 370.5,370.501 C387.068,370.501 400.5,357.07 400.5,340.501 Z" style="stroke:none;fill-rule:evenodd;fill:#000000;fill-opacity:1;"/>
        </g>
        <g id="Shape4">
            <desc type="0" basicInfo-basicType="4" basicInfo-roundedRectRadius="12" basicInfo-polygonSides="6" basicInfo-starPoints="5" bounding="rect(-29.1982,-29.1982,58.3965,58.3964)" text="" font-familyName="Helvetica" font-pixelSize="140" font-bold="0" font-underline="0" font-alignment="1" strokeStyle="0" markerStart="0" markerEnd="0" shadowEnabled="0" shadowOffsetX="0" shadowOffsetY="2" shadowBlur="4" shadowOpacity="160" blurEnabled="0" blurRadius="4" transform="matrix(-1.02746,0,0,1.02746,370.5,1020.5)" pers-center="0,0" pers-size="0,0" pers-start="0,0" pers-end="0,0" locked="0" mesh="" flag=""/>
            <path id="shapePath4" d="M400.5,1020.5 C400.5,1003.93 387.068,990.501 370.5,990.501 C353.931,990.501 340.5,1003.93 340.5,1020.5 C340.5,1037.07 353.931,1050.5 370.5,1050.5 C387.069,1050.5 400.5,1037.07 400.5,1020.5 Z" style="stroke:none;fill-rule:evenodd;fill:#000000;fill-opacity:1;"/>
        </g>
        <g id="Shape5">
            <desc type="0" basicInfo-basicType="0" basicInfo-roundedRectRadius="12" basicInfo-polygonSides="6" basicInfo-starPoints="5" bounding="rect(-10,-170,20,340)" text="" font-familyName="" font-pixelSize="20" font-bold="0" font-underline="0" font-alignment="1" strokeStyle="0" markerStart="0" markerEnd="0" shadowEnabled="0" shadowOffsetX="0" shadowOffsetY="2" shadowBlur="4" shadowOpacity="160" blurEnabled="0" blurRadius="4" transform="matrix(-1,0,0,0.852941,370.5,475.501)" pers-center="0,0" pers-size="0,0" pers-start="0,0" pers-end="0,0" locked="0" mesh="" flag=""/>
            <path id="shapePath5" d="M380.5,330.501 L360.5,330.501 L360.5,620.501 L380.5,620.501 L380.5,330.501 Z" style="stroke:none;fill-rule:evenodd;fill:#000000;fill-opacity:1;"/>
        </g>
        <g id="Shape6">
            <desc type="0" basicInfo-basicType="0" basicInfo-roundedRectRadius="12" basicInfo-polygonSides="6" basicInfo-starPoints="5" bounding="rect(-10,-170,20,340)" text="" font-familyName="" font-pixelSize="20" font-bold="0" font-underline="0" font-alignment="1" strokeStyle="0" markerStart="0" markerEnd="0" shadowEnabled="0" shadowOffsetX="0" shadowOffsetY="2" shadowBlur="4" shadowOpacity="160" blurEnabled="0" blurRadius="4" transform="matrix(-1,0,0,0.852941,370.5,885.501)" pers-center="0,0" pers-size="0,0" pers-start="0,0" pers-end="0,0" locked="0" mesh="" flag=""/>
            <path id="shapePath6" d="M380.5,740.501 L360.5,740.501 L360.5,1030.5 L380.5,1030.5 L380.5,740.501 Z" style="stroke:none;fill-rule:evenodd;fill:#000000;fill-opacity:1;"/>
        </g>
        <g id="Shape7">
            <desc type="0" basicInfo-basicType="0" basicInfo-roundedRectRadius="12" basicInfo-polygonSides="6" basicInfo-starPoints="5" bounding="rect(-200,-10,400,20)" text="" font-familyName="" font-pixelSize="20" font-bold="0" font-underline="0" font-alignment="1" strokeStyle="0" markerStart="0" markerEnd="0" shadowEnabled="0" shadowOffsetX="0" shadowOffsetY="2" shadowBlur="4" shadowOpacity="160" blurEnabled="0" blurRadius="4" transform="matrix(-1,0,0,1,370.5,630.501)" pers-center="0,0" pers-size="0,0" pers-start="0,0" pers-end="0,0" locked="0" mesh="" flag=""/>
            <path id="shapePath7" d="M170.5,620.501 L170.5,640.501 L570.5,640.501 L570.5,620.501 L170.5,620.501 Z" style="stroke:none;fill-rule:evenodd;fill:#000000;fill-opacity:1;"/>
        </g>
        <g id="Shape8">
            <desc type="0" basicInfo-basicType="0" basicInfo-roundedRectRadius="12" basicInfo-polygonSides="6" basicInfo-starPoints="5" bounding="rect(-200,-10,400,20)" text="" font-familyName="" font-pixelSize="20" font-bold="0" font-underline="0" font-alignment="1" strokeStyle="0" markerStart="0" markerEnd="0" shadowEnabled="0" shadowOffsetX="0" shadowOffsetY="2" shadowBlur="4" shadowOpacity="160" blurEnabled="0" blurRadius="4" transform="matrix(-1,0,0,1,370.5,730.501)" pers-center="0,0" pers-size="0,0" pers-start="0,0" pers-end="0,0" locked="0" mesh="" flag=""/>
            <path id="shapePath8" d="M170.5,720.501 L170.5,740.501 L570.5,740.501 L570.5,720.501 L170.5,720.501 Z" style="stroke:none;fill-rule:evenodd;fill:#000000;fill-opacity:1;"/>
        </g>
        <g id="Shape9">
            <desc type="0" basicInfo-basicType="0" basicInfo-roundedRectRadius="12" basicInfo-polygonSides="6" basicInfo-starPoints="5" bounding="rect(-10,-170,20.0001,340)" text="" font-familyName="" font-pixelSize="20" font-bold="0" font-underline="0" font-alignment="1" strokeStyle="0" markerStart="0" markerEnd="0" shadowEnabled="0" shadowOffsetX="0" shadowOffsetY="2" shadowBlur="4" shadowOpacity="160" blurEnabled="0" blurRadius="4" transform="matrix(3.59445e-06,-1,-0.852941,-3.06585e-06,915.501,340.499)" pers-center="0,0" pers-size="0,0" pers-start="0,0" pers-end="0,0" locked="0" mesh="" flag=""/>
            <path id="shapePath9" d="M1060.5,350.5 L1060.5,330.5 L770.501,330.499 L770.501,350.499 L1060.5,350.5 Z" style="stroke:none;fill-rule:evenodd;fill:#000000;fill-opacity:1;"/>
        </g>
        <g id="Shape10">
            <desc type="0" basicInfo-basicType="0" basicInfo-roundedRectRadius="12" basicInfo-polygonSides="6" basicInfo-starPoints="5" bounding="rect(-10.0004,-170,20.0007,340.001)" text="" font-familyName="" font-pixelSize="20" font-bold="0" font-underline="0" font-alignment="1" strokeStyle="0" markerStart="0" markerEnd="0" shadowEnabled="0" shadowOffsetX="0" shadowOffsetY="2" shadowBlur="4" shadowOpacity="160" blurEnabled="0" blurRadius="4" transform="matrix(3.59445e-06,-1,-1.85294,-6.66031e-06,335.501,340.499)" pers-center="0,0" pers-size="0,0" pers-start="0,0" pers-end="0,0" locked="0" mesh="" flag=""/>
            <path id="shapePath10" d="M650.501,350.5 L650.501,330.5 L20.5002,330.497 L20.5001,350.497 L650.501,350.5 Z" style="stroke:none;fill-rule:evenodd;fill:#000000;fill-opacity:1;"/>
        </g>
        <g id="Shape11">
            <desc type="0" basicInfo-basicType="0" basicInfo-roundedRectRadius="12" basicInfo-polygonSides="6" basicInfo-starPoints="5" bounding="rect(-200,-10.0002,400,20.0004)" text="" font-familyName="" font-pixelSize="20" font-bold="0" font-underline="0" font-alignment="1" strokeStyle="0" markerStart="0" markerEnd="0" shadowEnabled="0" shadowOffsetX="0" shadowOffsetY="2" shadowBlur="4" shadowOpacity="160" blurEnabled="0" blurRadius="4" transform="matrix(3.59445e-06,-1,-1,-3.59445e-06,760.5,340.499)" pers-center="0,0" pers-size="0,0" pers-start="0,0" pers-end="0,0" locked="0" mesh="" flag=""/>
            <path id="shapePath11" d="M770.501,140.499 L750.501,140.499 L750.5,540.499 L770.5,540.499 L770.501,140.499 Z" style="stroke:none;fill-rule:evenodd;fill:#000000;fill-opacity:1;"/>
        </g>
        <g id="Shape12">
            <desc type="0" basicInfo-basicType="0" basicInfo-roundedRectRadius="12" basicInfo-polygonSides="6" basicInfo-starPoints="5" bounding="rect(-200,-10.0002,400,20.0004)" text="" font-familyName="" font-pixelSize="20" font-bold="0" font-underline="0" font-alignment="1" strokeStyle="0" markerStart="0" markerEnd="0" shadowEnabled="0" shadowOffsetX="0" shadowOffsetY="2" shadowBlur="4" shadowOpacity="160" blurEnabled="0" blurRadius="4" transform="matrix(3.59445e-06,-1,-1,-3.59445e-06,660.501,340.5)" pers-center="0,0" pers-size="0,0" pers-start="0,0" pers-end="0,0" locked="0" mesh="" flag=""/>
            <path id="shapePath12" d="M670.501,140.5 L650.501,140.5 L650.5,540.5 L670.5,540.5 L670.501,140.5 Z" style="stroke:none;fill-rule:evenodd;fill:#000000;fill-opacity:1;"/>
        </g>
        <g id="Shape13">
            <desc type="0" basicInfo-basicType="0" basicInfo-roundedRectRadius="12" basicInfo-polygonSides="6" basicInfo-starPoints="5" bounding="rect(0,0,0,0)" text="" font-familyName="" font-pixelSize="20" font-bold="0" font-underline="0" font-alignment="1" strokeStyle="0" markerStart="0" markerEnd="0" shadowEnabled="0" shadowOffsetX="0" shadowOffsetY="2" shadowBlur="4" shadowOpacity="160" blurEnabled="0" blurRadius="4" transform="matrix(1,0,0,1,851.559,501.63)" pers-center="0,0" pers-size="0,0" pers-start="0,0" pers-end="0,0" locked="0" mesh="" flag=""/>
            <path id="shapePath13" d="M851.559,501.63 Z" style="stroke:#000000;stroke-opacity:1;stroke-width:1.27391;stroke-linejoin:miter;stroke-miterlimit:2;stroke-linecap:butt;fill:none;"/>
        </g>
        <g id="Shape14">
            <desc type="2" basicInfo-basicType="0" basicInfo-roundedRectRadius="12" basicInfo-polygonSides="6" basicInfo-starPoints="5" bounding="rect(-74.9995,-75,149.999,150)" text="C2" font-familyName="Helvetica" font-pixelSize="140" font-bold="0" font-underline="0" font-alignment="1" strokeStyle="0" markerStart="0" markerEnd="0" shadowEnabled="0" shadowOffsetX="0" shadowOffsetY="2" shadowBlur="4" shadowOpacity="160" blurEnabled="0" blurRadius="4" transform="matrix(1,0,0,1,675.5,695.5)" pers-center="0,0" pers-size="0,0" pers-start="0,0" pers-end="0,0" locked="0" mesh="" flag=""/>
            <path id="shapePath14" d="M668.609,640.191 C675.627,646.891 679.524,654.501 680.298,663.023 L667.037,663.023 C665.533,656.552 662.536,651.425 658.047,647.643 C653.558,643.86 647.258,641.969 639.146,641.969 C629.257,641.969 621.27,645.444 615.186,652.394 C609.102,659.343 606.06,669.996 606.06,684.352 C606.06,696.109 608.806,705.646 614.297,712.96 C619.789,720.274 627.981,723.932 638.873,723.932 C648.899,723.932 656.532,720.081 661.773,712.379 C664.553,708.323 666.626,702.991 667.994,696.383 L681.255,696.383 C680.07,706.956 676.151,715.82 669.498,722.975 C661.522,731.588 650.767,735.895 637.232,735.895 C625.565,735.895 615.767,732.363 607.837,725.299 C597.401,715.956 592.183,701.533 592.183,682.027 C592.183,667.216 596.102,655.071 603.941,645.592 C612.417,635.292 624.107,630.143 639.009,630.143 C651.724,630.143 661.591,633.492 668.609,640.191 M696.729,711.285 C699.76,705.042 705.673,699.368 714.468,694.264 L727.593,686.676 C733.472,683.258 737.596,680.341 739.966,677.926 C743.703,674.143 745.572,669.814 745.572,664.938 C745.572,659.241 743.863,654.718 740.445,651.368 C737.027,648.019 732.47,646.344 726.773,646.344 C718.342,646.344 712.509,649.534 709.273,655.914 C707.541,659.332 706.584,664.072 706.402,670.133 L693.892,670.133 C694.029,661.611 695.601,654.661 698.609,649.283 C703.941,639.804 713.352,635.064 726.841,635.064 C738.052,635.064 746.244,638.095 751.417,644.156 C756.589,650.217 759.175,656.962 759.175,664.391 C759.175,672.229 756.418,678.928 750.904,684.488 C747.714,687.724 741.994,691.643 733.746,696.246 L724.38,701.441 C719.914,703.902 716.405,706.249 713.853,708.482 C709.296,712.447 706.425,716.845 705.24,721.676 L758.697,721.676 L758.697,733.297 L691.5,733.297 C691.955,724.866 693.698,717.529 696.729,711.285 " style="stroke:none;fill-rule:nonzero;fill:#000000;fill-opacity:1;"/>
        </g>
        <g id="Shape15">
            <desc type="2" basicInfo-basicType="0" basicInfo-roundedRectRadius="12" basicInfo-polygonSides="6" basicInfo-starPoints="5" bounding="rect(-74.9995,-75,149.999,150)" text="C1" font-familyName="Helvetica" font-pixelSize="140" font-bold="0" font-underline="0" font-alignment="1" strokeStyle="0" markerStart="0" markerEnd="0" shadowEnabled="0" shadowOffsetX="0" shadowOffsetY="2" shadowBlur="4" shadowOpacity="160" blurEnabled="0" blurRadius="4" transform="matrix(1,0,0,1,705.5,85.5)" pers-center="0,0" pers-size="0,0" pers-start="0,0" pers-end="0,0" locked="0" mesh="" flag=""/>
            <path id="shapePath15" d="M698.609,30.1914 C705.627,36.8906 709.524,44.5013 710.298,53.0234 L697.037,53.0234 C695.533,46.5521 692.536,41.4251 688.047,37.6426 C683.558,33.86 677.258,31.9688 669.146,31.9688 C659.257,31.9688 651.27,35.4437 645.186,42.3936 C639.102,49.3434 636.06,59.9961 636.06,74.3516 C636.06,86.1094 638.806,95.6455 644.297,102.96 C649.789,110.274 657.981,113.932 668.873,113.932 C678.899,113.932 686.532,110.081 691.773,102.379 C694.553,98.3229 696.626,92.9909 697.994,86.3828 L711.255,86.3828 C710.07,96.9557 706.151,105.82 699.498,112.975 C691.522,121.588 680.767,125.895 667.232,125.895 C655.565,125.895 645.767,122.363 637.837,115.299 C627.401,105.956 622.183,91.5326 622.183,72.0273 C622.183,57.2161 626.102,45.071 633.941,35.5918 C642.417,25.2923 654.107,20.1426 669.009,20.1426 C681.724,20.1426 691.591,23.4922 698.609,30.1914 M730.523,53.9805 L730.523,44.5469 C739.41,43.681 745.608,42.2341 749.117,40.2061 C752.626,38.1781 755.246,33.3815 756.978,25.8164 L766.685,25.8164 L766.685,123.297 L753.56,123.297 L753.56,53.9805 L730.523,53.9805 " style="stroke:none;fill-rule:nonzero;fill:#000000;fill-opacity:1;"/>
        </g>
    </g>
</svg>
